<svg xmlns="http://www.w3.org/2000/svg" width="1440" height="960" viewBox="0 0 1440 960" role="img" aria-labelledby="title desc">
  <title id="title">A chunk still needs its source</title><desc id="desc">Metadata keeps retrieval traceable</desc>
  <defs>
    <linearGradient id="bg" x1="0" y1="0" x2="1" y2="1"><stop offset="0" stop-color="#f8f3e9"/><stop offset="1" stop-color="#ffffff"/></linearGradient>
    <pattern id="grid" width="48" height="48" patternUnits="userSpaceOnUse"><path d="M 48 0 L 0 0 0 48" fill="none" stroke="#eee2cc" stroke-width="1" opacity=".55"/></pattern>
    <filter id="shadow" x="-20%" y="-20%" width="140%" height="140%"><feDropShadow dx="0" dy="12" stdDeviation="14" flood-color="#3d3428" flood-opacity=".11"/></filter>
    <marker id="arrow" viewBox="0 0 10 10" refX="9" refY="5" markerWidth="9" markerHeight="9" orient="auto-start-reverse"><path d="M 0 0 L 10 5 L 0 10 z" fill="#7e7365"/></marker>
    <style>
      .headline{font:700 58px -apple-system,BlinkMacSystemFont,'Segoe UI',sans-serif;fill:#3d3428;letter-spacing:-1px}.subtitle{font:400 25px -apple-system,BlinkMacSystemFont,'Segoe UI',sans-serif;fill:#7e7365}.eyebrow{font:700 14px -apple-system,BlinkMacSystemFont,'Segoe UI',sans-serif;fill:#2d7b72;letter-spacing:3px}.cardTitle,.nodeTitle{font:700 20px -apple-system,BlinkMacSystemFont,'Segoe UI',sans-serif;fill:#3d3428}.cardBody{font:500 15px -apple-system,BlinkMacSystemFont,'Segoe UI',sans-serif;fill:#7e7365}.tiny,.pill{font:600 14px -apple-system,BlinkMacSystemFont,'Segoe UI',sans-serif;fill:#7e7365;letter-spacing:.5px}.pill{fill:#2d7b72}.white{fill:white}
    </style>
  </defs>
  <rect width="1440" height="960" fill="url(#bg)"/><rect width="1440" height="960" fill="url(#grid)" opacity=".55"/>
  <circle cx="1296" cy="76.8" r="172.79999999999998" fill="#eee2cc" opacity=".55"/><circle cx="57.6" cy="902.4" r="129.6" fill="#eee2cc" opacity=".38"/>
  <text x="108" y="100.8" class="eyebrow">EDITORIAL DIAGRAM</text>
  <text x="108" y="196.79999999999998" class="headline">A chunk still needs its source</text>
  <text x="108" y="254.4" class="subtitle">Metadata keeps retrieval traceable</text>
  <g><rect x="90" y="461" width="286.5" height="150" rx="28" fill="#fff" stroke="#eee2cc" stroke-width="3" filter="url(#shadow)"/><rect x="90" y="461" width="12" height="150" rx="6" fill="#2d7b72"/><text x="128" y="519" class="cardTitle">Document</text></g><path d="M 383.5 536 L 406.5 536" fill="none" stroke="#7e7365" stroke-width="5"  marker-end="url(#arrow)"/><g><rect x="414.5" y="461" width="286.5" height="150" rx="28" fill="#fff" stroke="#eee2cc" stroke-width="3" filter="url(#shadow)"/><rect x="414.5" y="461" width="12" height="150" rx="6" fill="#2d7b72"/><text x="452.5" y="519" class="cardTitle">Chunks</text></g><path d="M 708 536 L 731 536" fill="none" stroke="#7e7365" stroke-width="5"  marker-end="url(#arrow)"/><g><rect x="739" y="461" width="286.5" height="150" rx="28" fill="#fff" stroke="#eee2cc" stroke-width="3" filter="url(#shadow)"/><rect x="739" y="461" width="12" height="150" rx="6" fill="#2d7b72"/><text x="777" y="519" class="cardTitle">Metadata</text></g><path d="M 1032.5 536 L 1055.5 536" fill="none" stroke="#7e7365" stroke-width="5"  marker-end="url(#arrow)"/><g><rect x="1063.5" y="461" width="286.5" height="150" rx="28" fill="#fff" stroke="#eee2cc" stroke-width="3" filter="url(#shadow)"/><rect x="1063.5" y="461" width="12" height="150" rx="6" fill="#c77b3d"/><text x="1101.5" y="519" class="cardTitle">Source link</text></g>
  </svg>