<svg xmlns="http://www.w3.org/2000/svg" width="1600" height="900" viewBox="0 0 1600 900" role="img" aria-labelledby="title desc">
  <title id="title">Near in meaning, not spelling</title><desc id="desc">Embeddings place similar ideas close together</desc>
  <defs>
    <linearGradient id="bg" x1="0" y1="0" x2="1" y2="1"><stop offset="0" stop-color="#f3f1fa"/><stop offset="1" stop-color="#ffffff"/></linearGradient>
    <pattern id="grid" width="48" height="48" patternUnits="userSpaceOnUse"><path d="M 48 0 L 0 0 0 48" fill="none" stroke="#e3dff4" stroke-width="1" opacity=".55"/></pattern>
    <filter id="shadow" x="-20%" y="-20%" width="140%" height="140%"><feDropShadow dx="0" dy="12" stdDeviation="14" flood-color="#26233f" flood-opacity=".11"/></filter>
    <marker id="arrow" viewBox="0 0 10 10" refX="9" refY="5" markerWidth="9" markerHeight="9" orient="auto-start-reverse"><path d="M 0 0 L 10 5 L 0 10 z" fill="#6e6986"/></marker>
    <style>
      .headline{font:700 64px -apple-system,BlinkMacSystemFont,'Segoe UI',sans-serif;fill:#26233f;letter-spacing:-1px}.subtitle{font:400 28px -apple-system,BlinkMacSystemFont,'Segoe UI',sans-serif;fill:#6e6986}.eyebrow{font:700 16px -apple-system,BlinkMacSystemFont,'Segoe UI',sans-serif;fill:#5d55b8;letter-spacing:3px}.cardTitle,.nodeTitle{font:700 22px -apple-system,BlinkMacSystemFont,'Segoe UI',sans-serif;fill:#26233f}.cardBody{font:500 17px -apple-system,BlinkMacSystemFont,'Segoe UI',sans-serif;fill:#6e6986}.tiny,.pill{font:600 16px -apple-system,BlinkMacSystemFont,'Segoe UI',sans-serif;fill:#6e6986;letter-spacing:.5px}.pill{fill:#5d55b8}.white{fill:white}
    </style>
  </defs>
  <rect width="1600" height="900" fill="url(#bg)"/><rect width="1600" height="900" fill="url(#grid)" opacity=".55"/>
  <circle cx="1440" cy="72" r="192" fill="#e3dff4" opacity=".55"/><circle cx="64" cy="846" r="144" fill="#e3dff4" opacity=".38"/>
  <text x="120" y="94.5" class="eyebrow">EDITORIAL DIAGRAM</text>
  <text x="120" y="184.5" class="headline">Near in meaning, not spelling</text>
  <text x="120" y="238.5" class="subtitle">Embeddings place similar ideas close together</text>
  <rect x="192" y="306" width="1216" height="432" rx="34" fill="#fff" stroke="#e3dff4" stroke-width="3" filter="url(#shadow)"/><circle cx="530" cy="504.00000000000006" r="8" fill="#5d55b8" opacity="0.45"/><circle cx="492.84533502181245" cy="515.4277839953668" r="10" fill="#5d55b8" opacity="0.5700000000000001"/><circle cx="514.9072203387709" cy="481.9809387226993" r="12" fill="#5d55b8" opacity="0.69"/><circle cx="537.6506422328844" cy="525.6172112831338" r="8" fill="#5d55b8" opacity="0.81"/><circle cx="462.7311358216404" cy="498.4624340150509" r="10" fill="#5d55b8" opacity="0.45"/><circle cx="560.7873123157771" cy="483.6123880423996" r="12" fill="#5d55b8" opacity="0.5700000000000001"/><circle cx="495.2347613371001" cy="545.4928495214942" r="8" fill="#5d55b8" opacity="0.69"/><circle cx="477.4508637697276" cy="461.4641808474784" r="10" fill="#5d55b8" opacity="0.81"/><circle cx="589.2388161191222" cy="521.8976208672602" r="12" fill="#5d55b8" opacity="0.45"/><circle cx="429.1097186638865" cy="526.7889783087885" r="8" fill="#5d55b8" opacity="0.5700000000000001"/><circle cx="552.6800122554833" cy="446.0473450588966" r="10" fill="#5d55b8" opacity="0.69"/><circle cx="544.7939352426248" cy="569.519735006144" r="12" fill="#5d55b8" opacity="0.81"/><circle cx="1049.7254415056266" cy="441.8452105222524" r="8" fill="#d48a47" opacity="0.45"/><circle cx="1014.8566154937641" cy="427.6976964218001" r="10" fill="#d48a47" opacity="0.5700000000000001"/><circle cx="1070.0760104335595" cy="421.69317243380993" r="12" fill="#d48a47" opacity="0.69"/><circle cx="1025.8740918112433" cy="457.709605370145" r="8" fill="#d48a47" opacity="0.81"/><circle cx="1020.5486900043032" cy="402.06013255009003" r="10" fill="#d48a47" opacity="0.45"/><circle cx="1092.753103359544" cy="447.66904627948037" r="12" fill="#d48a47" opacity="0.5700000000000001"/><circle cx="977.2262737391784" cy="445.2488320461667" r="8" fill="#d48a47" opacity="0.69"/><circle cx="1076.3986491550052" cy="390.1209366327352" r="10" fill="#d48a47" opacity="0.81"/><circle cx="1058.5625740564687" cy="483.9163705564844" r="12" fill="#d48a47" opacity="0.45"/><circle cx="965.7122452134821" cy="398.9755891951304" r="8" fill="#d48a47" opacity="0.5700000000000001"/><circle cx="1137.003316155955" cy="422.93822938764345" r="10" fill="#d48a47" opacity="0.69"/><circle cx="972.8987066147386" cy="485.33730814350866" r="12" fill="#d48a47" opacity="0.81"/><circle cx="1112.5093569421515" cy="640.6387798938605" r="8" fill="#6e6986" opacity="0.45"/><circle cx="1111.9846077260906" cy="613.923126916941" r="10" fill="#6e6986" opacity="0.5700000000000001"/><circle cx="1149.593055238362" cy="640.8814558769052" r="12" fill="#6e6986" opacity="0.69"/><circle cx="1079.0848362333818" cy="636.1647068457648" r="8" fill="#6e6986" opacity="0.81"/><circle cx="1148.2496888926978" cy="603.1844071438035" r="10" fill="#6e6986" opacity="0.45"/><circle cx="1128.2179344579467" cy="667.3196556287162" r="12" fill="#6e6986" opacity="0.5700000000000001"/><circle cx="1068.9316605695853" cy="602.823899487713" r="8" fill="#6e6986" opacity="0.69"/><circle cx="1193.8816843681418" cy="627.2811101426595" r="10" fill="#6e6986" opacity="0.81"/><circle cx="1062.8199870119943" cy="668.2034485806864" r="12" fill="#6e6986" opacity="0.45"/><circle cx="1122.6145909182685" cy="571.5246910755961" r="8" fill="#6e6986" opacity="0.5700000000000001"/><circle cx="1184.142218536354" cy="678.1604638268947" r="10" fill="#6e6986" opacity="0.69"/><circle cx="1014.6960976717926" cy="622.1168061513306" r="12" fill="#6e6986" opacity="0.81"/><circle cx="768" cy="468" r="21" fill="#fff" stroke="#c34d67" stroke-width="8"/><line x1="768" y1="468" x2="592" y2="513" stroke="#c34d67" stroke-width="5" stroke-dasharray="12 10"/><text x="768" y="396" text-anchor="middle" class="nodeTitle">query</text>
  </svg>