<svg xmlns="http://www.w3.org/2000/svg" width="1600" height="900" viewBox="0 0 1600 900" role="img" aria-labelledby="title desc">
  <title id="title">The message has no voice</title><desc id="desc">The reader supplies tone from context and stress</desc>
  <defs>
    <linearGradient id="bg" x1="0" y1="0" x2="1" y2="1"><stop offset="0" stop-color="#f8f1f5"/><stop offset="1" stop-color="#ffffff"/></linearGradient>
    <pattern id="grid" width="48" height="48" patternUnits="userSpaceOnUse"><path d="M 48 0 L 0 0 0 48" fill="none" stroke="#eedce6" stroke-width="1" opacity=".55"/></pattern>
    <filter id="shadow" x="-20%" y="-20%" width="140%" height="140%"><feDropShadow dx="0" dy="12" stdDeviation="14" flood-color="#402839" flood-opacity=".11"/></filter>
    <marker id="arrow" viewBox="0 0 10 10" refX="9" refY="5" markerWidth="9" markerHeight="9" orient="auto-start-reverse"><path d="M 0 0 L 10 5 L 0 10 z" fill="#826d7b"/></marker>
    <style>
      .headline{font:700 64px -apple-system,BlinkMacSystemFont,'Segoe UI',sans-serif;fill:#402839;letter-spacing:-1px}.subtitle{font:400 28px -apple-system,BlinkMacSystemFont,'Segoe UI',sans-serif;fill:#826d7b}.eyebrow{font:700 16px -apple-system,BlinkMacSystemFont,'Segoe UI',sans-serif;fill:#9b4f75;letter-spacing:3px}.cardTitle,.nodeTitle{font:700 22px -apple-system,BlinkMacSystemFont,'Segoe UI',sans-serif;fill:#402839}.cardBody{font:500 17px -apple-system,BlinkMacSystemFont,'Segoe UI',sans-serif;fill:#826d7b}.tiny,.pill{font:600 16px -apple-system,BlinkMacSystemFont,'Segoe UI',sans-serif;fill:#826d7b;letter-spacing:.5px}.pill{fill:#9b4f75}.white{fill:white}
    </style>
  </defs>
  <rect width="1600" height="900" fill="url(#bg)"/><rect width="1600" height="900" fill="url(#grid)" opacity=".55"/>
  <circle cx="1440" cy="72" r="192" fill="#eedce6" opacity=".55"/><circle cx="64" cy="846" r="144" fill="#eedce6" opacity=".38"/>
  <text x="120" y="94.5" class="eyebrow">EDITORIAL DIAGRAM</text>
  <text x="120" y="184.5" class="headline">The message has no voice</text>
  <text x="120" y="238.5" class="subtitle">The reader supplies tone from context and stress</text>
  <rect x="592" y="439" width="416" height="184" rx="48" fill="#fff" stroke="#eedce6" stroke-width="4" filter="url(#shadow)"/><circle cx="672" cy="531" r="17" fill="#9b4f75"/><line x1="736" y1="506" x2="927.9999999999999" y2="506" stroke="#eedce6" stroke-width="14" stroke-linecap="round"/><line x1="736" y1="556" x2="880.0000000000001" y2="556" stroke="#eedce6" stroke-width="14" stroke-linecap="round"/><path d="M 576 531 L 320 531" fill="none" stroke="#9b4f75" stroke-width="6"  marker-end="url(#arrow)"/><path d="M 1024 531 L 1280 531" fill="none" stroke="#b94b59" stroke-width="6"  marker-end="url(#arrow)"/><circle cx="256" cy="531" r="72" fill="#eedce6"/><path d="M 208 541 Q 256 563 304 541" fill="none" stroke="#9b4f75" stroke-width="8" stroke-linecap="round"/><circle cx="1344" cy="531" r="72" fill="#f4dddd"/><path d="M 1296 556 Q 1344 526 1392 556" fill="none" stroke="#b94b59" stroke-width="8" stroke-linecap="round"/><text x="256" y="656" text-anchor="middle" class="nodeTitle">calm reading</text><text x="1344" y="656" text-anchor="middle" class="nodeTitle">sharp reading</text>
  </svg>