<svg xmlns="http://www.w3.org/2000/svg" width="1440" height="960" viewBox="0 0 1440 960" role="img" aria-labelledby="title desc">
  <title id="title">Replay, not rewrite</title><desc id="desc">Rebuild projections without repeating side effects</desc>
  <defs>
    <linearGradient id="bg" x1="0" y1="0" x2="1" y2="1"><stop offset="0" stop-color="#f1f6ef"/><stop offset="1" stop-color="#ffffff"/></linearGradient>
    <pattern id="grid" width="48" height="48" patternUnits="userSpaceOnUse"><path d="M 48 0 L 0 0 0 48" fill="none" stroke="#dcebdd" stroke-width="1" opacity=".55"/></pattern>
    <filter id="shadow" x="-20%" y="-20%" width="140%" height="140%"><feDropShadow dx="0" dy="12" stdDeviation="14" flood-color="#24382b" flood-opacity=".11"/></filter>
    <marker id="arrow" viewBox="0 0 10 10" refX="9" refY="5" markerWidth="9" markerHeight="9" orient="auto-start-reverse"><path d="M 0 0 L 10 5 L 0 10 z" fill="#6a7b6f"/></marker>
    <style>
      .headline{font:700 58px -apple-system,BlinkMacSystemFont,'Segoe UI',sans-serif;fill:#24382b;letter-spacing:-1px}.subtitle{font:400 25px -apple-system,BlinkMacSystemFont,'Segoe UI',sans-serif;fill:#6a7b6f}.eyebrow{font:700 14px -apple-system,BlinkMacSystemFont,'Segoe UI',sans-serif;fill:#397a54;letter-spacing:3px}.cardTitle,.nodeTitle{font:700 20px -apple-system,BlinkMacSystemFont,'Segoe UI',sans-serif;fill:#24382b}.cardBody{font:500 15px -apple-system,BlinkMacSystemFont,'Segoe UI',sans-serif;fill:#6a7b6f}.tiny,.pill{font:600 14px -apple-system,BlinkMacSystemFont,'Segoe UI',sans-serif;fill:#6a7b6f;letter-spacing:.5px}.pill{fill:#397a54}.white{fill:white}
    </style>
  </defs>
  <rect width="1440" height="960" fill="url(#bg)"/><rect width="1440" height="960" fill="url(#grid)" opacity=".55"/>
  <circle cx="1296" cy="76.8" r="172.79999999999998" fill="#dcebdd" opacity=".55"/><circle cx="57.6" cy="902.4" r="129.6" fill="#dcebdd" opacity=".38"/>
  <text x="108" y="100.8" class="eyebrow">EDITORIAL DIAGRAM</text>
  <text x="108" y="196.79999999999998" class="headline">Replay, not rewrite</text>
  <text x="108" y="254.4" class="subtitle">Rebuild projections without repeating side effects</text>
  <rect x="110" y="355" width="378.6666666666667" height="365" rx="34" fill="#fff" stroke="#dcebdd" stroke-width="3" filter="url(#shadow)"/><circle cx="168" cy="417" r="23" fill="#397a54"/><text x="208" y="427" class="nodeTitle">Events</text><path d="M 158 510 C 242.53333333333333 460, 329.62666666666667 585, 443.6666666666667 520" fill="none" stroke="#397a54" stroke-width="9" stroke-linecap="round"/><line x1="162" y1="600" x2="436.6666666666667" y2="600" stroke="#dcebdd" stroke-width="12" stroke-linecap="round"/><line x1="162" y1="645" x2="382.64" y2="645" stroke="#dcebdd" stroke-width="12" stroke-linecap="round"/><text x="158" y="684" class="tiny">before</text><rect x="530.6666666666667" y="355" width="378.6666666666667" height="365" rx="34" fill="#fff" stroke="#dcebdd" stroke-width="3" filter="url(#shadow)"/><circle cx="588.6666666666667" cy="417" r="23" fill="#397a54"/><text x="628.6666666666667" y="427" class="nodeTitle">Projection</text><path d="M 578.6666666666667 510 C 663.2 460, 750.2933333333334 585, 864.3333333333335 520" fill="none" stroke="#397a54" stroke-width="9" stroke-linecap="round"/><line x1="582.6666666666667" y1="600" x2="857.3333333333335" y2="600" stroke="#dcebdd" stroke-width="12" stroke-linecap="round"/><line x1="582.6666666666667" y1="645" x2="803.3066666666667" y2="645" stroke="#dcebdd" stroke-width="12" stroke-linecap="round"/><text x="578.6666666666667" y="684" class="tiny">after</text><rect x="951.3333333333334" y="355" width="378.6666666666667" height="365" rx="34" fill="#fff" stroke="#dcebdd" stroke-width="3" filter="url(#shadow)"/><circle cx="1009.3333333333334" cy="417" r="23" fill="#cf8b3d"/><text x="1049.3333333333335" y="427" class="nodeTitle">Side effect locked</text><path d="M 999.3333333333334 510 C 1083.8666666666668 460, 1170.96 585, 1285 520" fill="none" stroke="#cf8b3d" stroke-width="9" stroke-linecap="round"/><line x1="1003.3333333333334" y1="600" x2="1278" y2="600" stroke="#dcebdd" stroke-width="12" stroke-linecap="round"/><line x1="1003.3333333333334" y1="645" x2="1223.9733333333334" y2="645" stroke="#dcebdd" stroke-width="12" stroke-linecap="round"/>
  </svg>