<svg xmlns="http://www.w3.org/2000/svg" width="1440" height="960" viewBox="0 0 1440 960" role="img" aria-labelledby="title desc">
  <title id="title">Pilot one small slice</title><desc id="desc">Contain blast radius and keep a rollback path</desc>
  <defs>
    <linearGradient id="bg" x1="0" y1="0" x2="1" y2="1"><stop offset="0" stop-color="#f3f1fa"/><stop offset="1" stop-color="#ffffff"/></linearGradient>
    <pattern id="grid" width="48" height="48" patternUnits="userSpaceOnUse"><path d="M 48 0 L 0 0 0 48" fill="none" stroke="#e3dff4" stroke-width="1" opacity=".55"/></pattern>
    <filter id="shadow" x="-20%" y="-20%" width="140%" height="140%"><feDropShadow dx="0" dy="12" stdDeviation="14" flood-color="#26233f" flood-opacity=".11"/></filter>
    <marker id="arrow" viewBox="0 0 10 10" refX="9" refY="5" markerWidth="9" markerHeight="9" orient="auto-start-reverse"><path d="M 0 0 L 10 5 L 0 10 z" fill="#6e6986"/></marker>
    <style>
      .headline{font:700 58px -apple-system,BlinkMacSystemFont,'Segoe UI',sans-serif;fill:#26233f;letter-spacing:-1px}.subtitle{font:400 25px -apple-system,BlinkMacSystemFont,'Segoe UI',sans-serif;fill:#6e6986}.eyebrow{font:700 14px -apple-system,BlinkMacSystemFont,'Segoe UI',sans-serif;fill:#5d55b8;letter-spacing:3px}.cardTitle,.nodeTitle{font:700 20px -apple-system,BlinkMacSystemFont,'Segoe UI',sans-serif;fill:#26233f}.cardBody{font:500 15px -apple-system,BlinkMacSystemFont,'Segoe UI',sans-serif;fill:#6e6986}.tiny,.pill{font:600 14px -apple-system,BlinkMacSystemFont,'Segoe UI',sans-serif;fill:#6e6986;letter-spacing:.5px}.pill{fill:#5d55b8}.white{fill:white}
    </style>
  </defs>
  <rect width="1440" height="960" fill="url(#bg)"/><rect width="1440" height="960" fill="url(#grid)" opacity=".55"/>
  <circle cx="1296" cy="76.8" r="172.79999999999998" fill="#e3dff4" opacity=".55"/><circle cx="57.6" cy="902.4" r="129.6" fill="#e3dff4" opacity=".38"/>
  <text x="108" y="100.8" class="eyebrow">EDITORIAL DIAGRAM</text>
  <text x="108" y="196.79999999999998" class="headline">Pilot one small slice</text>
  <text x="108" y="254.4" class="subtitle">Contain blast radius and keep a rollback path</text>
  <path d="M 259.2 528 L 547.2 384" fill="none" stroke="#6e6986" stroke-width="6"  marker-end="url(#arrow)"/><path d="M 547.2 384 L 835.1999999999999 556.8" fill="none" stroke="#6e6986" stroke-width="6"  marker-end="url(#arrow)"/><path d="M 835.1999999999999 556.8 L 1094.4 345.59999999999997" fill="none" stroke="#c34d67" stroke-width="6" stroke-dasharray="14 12" marker-end="url(#arrow)"/><path d="M 835.1999999999999 556.8 L 1209.6 652.8000000000001" fill="none" stroke="#6e6986" stroke-width="6"  marker-end="url(#arrow)"/><path d="M 1209.6 652.8000000000001 L 547.2 384" fill="none" stroke="#c34d67" stroke-width="6" stroke-dasharray="14 12" marker-end="url(#arrow)"/><g filter="url(#shadow)"><rect x="164.2" y="480" width="190" height="96" rx="26" fill="#fff" stroke="#e3dff4" stroke-width="4"/><circle cx="204.2" cy="528" r="15" fill="#5d55b8"/><text x="232.2" y="537" class="nodeTitle">Gateway</text></g><g filter="url(#shadow)"><rect x="452.20000000000005" y="336" width="190" height="96" rx="26" fill="#e3dff4" stroke="#5d55b8" stroke-width="4"/><circle cx="492.20000000000005" cy="384" r="15" fill="#d48a47"/><text x="520.2" y="393" class="nodeTitle">Order</text></g><g filter="url(#shadow)"><rect x="740.1999999999999" y="508.79999999999995" width="190" height="96" rx="26" fill="#e3dff4" stroke="#5d55b8" stroke-width="4"/><circle cx="780.1999999999999" cy="556.8" r="15" fill="#d48a47"/><text x="808.1999999999999" y="565.8" class="nodeTitle">Payment</text></g><g filter="url(#shadow)"><rect x="999.4000000000001" y="297.59999999999997" width="190" height="96" rx="26" fill="#fff" stroke="#e3dff4" stroke-width="4"/><circle cx="1039.4" cy="345.59999999999997" r="15" fill="#5d55b8"/><text x="1067.4" y="354.59999999999997" class="nodeTitle">Catalog</text></g><g filter="url(#shadow)"><rect x="1114.6" y="604.8000000000001" width="190" height="96" rx="26" fill="#fff" stroke="#e3dff4" stroke-width="4"/><circle cx="1154.6" cy="652.8000000000001" r="15" fill="#5d55b8"/><text x="1182.6" y="661.8000000000001" class="nodeTitle">Profile</text></g><text x="201.60000000000002" y="758.4000000000001" class="pill">pilot  •  rollback</text>
  </svg>