<svg xmlns="http://www.w3.org/2000/svg" width="1600" height="900" viewBox="0 0 1600 900" role="img" aria-labelledby="title desc">
  <title id="title">Map the failure first</title><desc id="desc">Retries and timeouts matter before the mesh does</desc>
  <defs>
    <linearGradient id="bg" x1="0" y1="0" x2="1" y2="1"><stop offset="0" stop-color="#f3f5f7"/><stop offset="1" stop-color="#ffffff"/></linearGradient>
    <pattern id="grid" width="48" height="48" patternUnits="userSpaceOnUse"><path d="M 48 0 L 0 0 0 48" fill="none" stroke="#dde8f0" stroke-width="1" opacity=".55"/></pattern>
    <filter id="shadow" x="-20%" y="-20%" width="140%" height="140%"><feDropShadow dx="0" dy="12" stdDeviation="14" flood-color="#1f2d39" flood-opacity=".11"/></filter>
    <marker id="arrow" viewBox="0 0 10 10" refX="9" refY="5" markerWidth="9" markerHeight="9" orient="auto-start-reverse"><path d="M 0 0 L 10 5 L 0 10 z" fill="#687987"/></marker>
    <style>
      .headline{font:700 64px -apple-system,BlinkMacSystemFont,'Segoe UI',sans-serif;fill:#1f2d39;letter-spacing:-1px}.subtitle{font:400 28px -apple-system,BlinkMacSystemFont,'Segoe UI',sans-serif;fill:#687987}.eyebrow{font:700 16px -apple-system,BlinkMacSystemFont,'Segoe UI',sans-serif;fill:#3b6f9a;letter-spacing:3px}.cardTitle,.nodeTitle{font:700 22px -apple-system,BlinkMacSystemFont,'Segoe UI',sans-serif;fill:#1f2d39}.cardBody{font:500 17px -apple-system,BlinkMacSystemFont,'Segoe UI',sans-serif;fill:#687987}.tiny,.pill{font:600 16px -apple-system,BlinkMacSystemFont,'Segoe UI',sans-serif;fill:#687987;letter-spacing:.5px}.pill{fill:#3b6f9a}.white{fill:white}
    </style>
  </defs>
  <rect width="1600" height="900" fill="url(#bg)"/><rect width="1600" height="900" fill="url(#grid)" opacity=".55"/>
  <circle cx="1440" cy="72" r="192" fill="#dde8f0" opacity=".55"/><circle cx="64" cy="846" r="144" fill="#dde8f0" opacity=".38"/>
  <text x="120" y="94.5" class="eyebrow">EDITORIAL DIAGRAM</text>
  <text x="120" y="184.5" class="headline">Map the failure first</text>
  <text x="120" y="238.5" class="subtitle">Retries and timeouts matter before the mesh does</text>
  <path d="M 288 495.00000000000006 L 608 360" fill="none" stroke="#687987" stroke-width="6"  marker-end="url(#arrow)"/><path d="M 608 360 L 927.9999999999999 522" fill="none" stroke="#687987" stroke-width="6"  marker-end="url(#arrow)"/><path d="M 927.9999999999999 522 L 1216 324" fill="none" stroke="#c65353" stroke-width="6" stroke-dasharray="14 12" marker-end="url(#arrow)"/><path d="M 927.9999999999999 522 L 1344 612" fill="none" stroke="#687987" stroke-width="6"  marker-end="url(#arrow)"/><path d="M 1344 612 L 608 360" fill="none" stroke="#c65353" stroke-width="6" stroke-dasharray="14 12" marker-end="url(#arrow)"/><g filter="url(#shadow)"><rect x="193" y="447.00000000000006" width="190" height="96" rx="26" fill="#fff" stroke="#dde8f0" stroke-width="4"/><circle cx="233" cy="495.00000000000006" r="15" fill="#3b6f9a"/><text x="261" y="504.00000000000006" class="nodeTitle">API</text></g><g filter="url(#shadow)"><rect x="513" y="312" width="190" height="96" rx="26" fill="#fff" stroke="#dde8f0" stroke-width="4"/><circle cx="553" cy="360" r="15" fill="#3b6f9a"/><text x="581" y="369" class="nodeTitle">Order</text></g><g filter="url(#shadow)"><rect x="832.9999999999999" y="474" width="190" height="96" rx="26" fill="#fff" stroke="#dde8f0" stroke-width="4"/><circle cx="872.9999999999999" cy="522" r="15" fill="#3b6f9a"/><text x="900.9999999999999" y="531" class="nodeTitle">Payment</text></g><g filter="url(#shadow)"><rect x="1121" y="276" width="190" height="96" rx="26" fill="#fff" stroke="#dde8f0" stroke-width="4"/><circle cx="1161" cy="324" r="15" fill="#3b6f9a"/><text x="1189" y="333" class="nodeTitle">Inventory</text></g><g filter="url(#shadow)"><rect x="1249" y="564" width="190" height="96" rx="26" fill="#fff" stroke="#dde8f0" stroke-width="4"/><circle cx="1289" cy="612" r="15" fill="#3b6f9a"/><text x="1317" y="621" class="nodeTitle">Notify</text></g><text x="224.00000000000003" y="711" class="pill">retry  •  timeout</text>
  </svg>